<svg xmlns="http://www.w3.org/2000/svg" version="1.1" xmlns:xlink="http://www.w3.org/1999/xlink" xmlns:svgjs="http://svgjs.dev/svgjs" width="1000" height="1000" viewBox="0 0 1000 1000"><rect width="1000" height="1000" fill="#ffffff"></rect><g transform="matrix(0.7,0,0,0.7,150.6405210814392,72.64632248155175)"><svg viewBox="0 0 202 247" data-background-color="#ffffff" preserveAspectRatio="xMidYMid meet" height="1222" width="1000" xmlns="http://www.w3.org/2000/svg" xmlns:xlink="http://www.w3.org/1999/xlink"><g id="tight-bounds" transform="matrix(1,0,0,1,-0.18483604764662687,-0.1000019323629715)"><svg viewBox="0 0 202.36967213114755 247.2" height="247.2" width="202.36967213114755"><g><svg viewBox="0 0 202.36967213114755 247.2" height="247.2" width="202.36967213114755"><g><svg viewBox="0 0 202.36967213114755 247.2" height="247.2" width="202.36967213114755"><g><svg viewBox="0 0 202.36967213114755 247.2" height="247.2" width="202.36967213114755"><g><svg viewBox="0 0 202.36967213114755 247.2" height="247.2" width="202.36967213114755"><g transform="matrix(1,0,0,1,0,0)"><svg width="202.36967213114755" viewBox="0.08000000566244125 -34.400001525878906 31.96000099182129 39.040000915527344" height="247.2" data-palette-color="#ed3b43"><path d="M6.68-20.44L6.68-20.44Q6.68-17.6 8.36-17.32L8.36-17.32Q8.24-16.76 7.44-16.76L7.44-16.76Q5.8-16.76 5.12-18.72L5.12-18.72Q4.8-19.64 4.8-20.96 4.8-22.28 5.84-24.16L5.84-24.16Q8.24-28.52 14.64-29.8L14.64-29.8Q16.92-30.24 19.64-30.24 22.36-30.24 24.58-30.88 26.8-31.52 27.86-32.32 28.92-33.12 29.86-33.76 30.8-34.4 31.42-34.4 32.04-34.4 32.04-33.84L32.04-33.84Q32.04-32.52 29.44-31.16 26.84-29.8 22.68-29.4L22.68-29.4Q20.96-28.48 20-22.88L20-22.88Q18.92-16.44 18.2-12.36 17.48-8.28 16.5-5.38 15.52-2.48 14.28-0.26 13.04 1.96 11.02 3.3 9 4.64 6.3 4.64 3.6 4.64 1.92 2.88L1.92 2.88Q0.08 0.96 0.08-2.32L0.08-2.32Q0.08-7.8 3-10.72L3-10.72Q4.76-12.48 6.92-12.48L6.92-12.48Q7.44-12.48 7.78-12.24 8.12-12 8.24-11.52L8.24-11.52Q4.84-11.52 2.72-8L2.72-8Q1.16-5.4 1.16-2.6L1.16-2.6Q1.16 2 4.32 3L4.32 3Q5.04 3.24 5.88 3.24L5.88 3.24Q8.36 3.24 10.22 1.2 12.08-0.84 13.06-3.96 14.04-7.08 14.94-10.98 15.84-14.88 16.44-18.4 17.04-21.92 18.06-24.98 19.08-28.04 20.4-29.28L20.4-29.28 19.6-29.28Q11.4-29.28 8.16-24.68L8.16-24.68Q6.68-22.6 6.68-20.44Z" opacity="1" transform="matrix(1,0,0,1,0,0)" fill="#000000" class="undefined-text-0" data-fill-palette-color="primary" id="text-0"></path></svg></g></svg></g></svg></g></svg></g><g></g></svg></g><defs></defs></svg><rect width="202.36967213114755" height="247.2" fill="none" stroke="none" visibility="hidden"></rect></g></svg></g></svg>